<svg width="52" height="56" viewBox="0 0 52 56" fill="none" xmlns="http://www.w3.org/2000/svg">
<path d="M26.0729 25.3306C25.2229 25.5977 24.3386 25.7399 23.4477 25.7528C22.0655 25.8018 20.6981 26.0551 19.39 26.5043C16.506 27.3908 16.7366 29.33 17.1612 30.7113C17.1736 30.7515 18.6389 34.6594 24.0288 33.0027C26.7592 32.1634 27.2625 29.487 27.7941 26.6505C27.9456 25.8432 28.0996 25.0263 28.3091 24.2443C27.6394 24.745 26.8805 25.1136 26.0729 25.3306Z" fill="white"/>
<path d="M31.39 21.939C30.2036 22.9887 29.8321 24.9167 29.4479 26.9639C29.3567 27.4462 29.2626 27.9392 29.1562 28.4324C29.894 28.4564 30.6302 28.3493 31.3306 28.1162C34.1157 27.2601 34.457 23.9652 34.1165 22.8575C33.8908 22.123 33.6301 21.298 31.39 21.939Z" fill="white"/>
<path d="M17.2465 54.2307L17.2505 54.2295C17.6802 53.703 18.3844 53.4865 19.0356 53.6808L20.3297 54.0666C20.6554 54.1639 21.0077 54.0556 21.2226 53.7921L22.0773 52.7458C22.507 52.2193 23.2112 52.0029 23.8624 52.1971L25.1564 52.583C25.4822 52.6802 25.8345 52.5719 26.0494 52.3085L26.9041 51.2621C27.3338 50.7357 28.0379 50.5192 28.6892 50.7134L29.9832 51.0993C30.309 51.1966 30.6613 51.0883 30.8761 50.8248L31.7308 49.7785C32.1605 49.252 32.8647 49.0355 33.5159 49.2298L34.81 49.6156C35.1357 49.7129 35.488 49.6046 35.7029 49.3411L36.5576 48.2948C36.9873 47.7683 37.6915 47.5519 38.3427 47.7461L39.6367 48.132C39.9625 48.2292 40.3148 48.1209 40.5297 47.8575L41.3844 46.8111C41.8134 46.2837 42.5182 46.067 43.1695 46.2624L44.4635 46.6483C44.7893 46.7456 45.1416 46.6373 45.3564 46.3738L46.2111 45.3275C46.6408 44.8014 47.3445 44.5851 47.9954 44.779C48.1659 44.8317 48.3515 44.7855 48.4773 44.6591C48.6031 44.5326 48.6484 44.3467 48.5947 44.1766L48.0339 42.3521L15.8555 52.2432L16.4163 54.0677C16.4681 54.2369 16.6089 54.3639 16.7826 54.398C16.9562 54.4321 17.1345 54.3678 17.2465 54.2307Z" fill="white"/>
<path d="M6.81723 9.4229L5.8096 10.6562C5.37989 11.1827 4.67574 11.3992 4.0245 11.205C3.85466 11.1528 3.66992 11.1988 3.54435 11.3245C3.41878 11.4502 3.37295 11.6349 3.42524 11.8047L3.98607 13.6293L36.1645 3.73815L35.6037 1.91363C35.5519 1.74441 35.4111 1.61746 35.2374 1.58336C35.0638 1.54926 34.8854 1.61354 34.7735 1.7506C34.3438 2.27709 33.6396 2.49354 32.9884 2.29931L31.4595 1.84829C31.274 1.79259 31.0732 1.8543 30.9511 2.00457L29.9434 3.23791C29.5137 3.76441 28.8096 3.98085 28.1583 3.78662L26.6327 3.33196C26.4472 3.27625 26.2465 3.33797 26.1243 3.48824L25.1167 4.72158C24.687 5.24807 23.9828 5.46452 23.3316 5.27029L21.8059 4.81562C21.6205 4.75992 21.4197 4.82163 21.2975 4.9719L20.2899 6.20525C19.8602 6.73174 19.156 6.94818 18.5048 6.75395L16.9792 6.29929C16.7937 6.24358 16.5929 6.3053 16.4708 6.45557L15.4631 7.68891C15.0334 8.21541 14.3293 8.43185 13.678 8.23762L12.1524 7.78296C11.9669 7.72725 11.7662 7.78896 11.644 7.93923L10.6364 9.17258C10.2067 9.69907 9.50251 9.91552 8.85127 9.72129L7.32565 9.26662C7.14017 9.21091 6.9394 9.27263 6.81723 9.4229Z" fill="white"/>
<path d="M22.7948 17.5324C14.8065 19.9879 9.75608 26.6734 11.5291 32.4414C13.302 38.2094 21.2357 40.9039 29.224 38.4484C37.2123 35.9929 42.2627 29.3074 40.4897 23.5394C38.7167 17.7714 30.7831 15.0769 22.7948 17.5324ZM31.8252 29.7246C30.8264 30.0574 29.7691 30.1785 28.7208 30.0801C28.0854 32.0804 26.9761 33.8565 24.5225 34.6107C18.6097 36.4282 16.0014 32.6691 15.5514 31.205C14.6092 28.14 15.8295 25.8367 18.8945 24.8946C20.3383 24.4038 21.8462 24.1271 23.3702 24.0735C24.119 24.0612 24.8621 23.9424 25.5774 23.7208C26.5886 23.4483 27.5022 22.8959 28.2132 22.127C28.9093 21.3693 29.763 20.7734 30.7141 20.3809C31.7116 20.0743 34.7364 19.1446 35.7255 22.3624C36.3462 24.3816 35.574 28.5723 31.8252 29.7246Z" fill="white"/>
<path d="M36.8362 5.29215L4.30379 15.2921C4.67568 21.5217 5.7504 27.6894 7.50749 33.6776C9.41608 39.6194 11.9913 45.326 15.184 50.6884L47.7164 40.6885C47.3445 34.4588 46.2698 28.2911 44.5127 22.3029C42.6041 16.3611 40.0289 10.6545 36.8362 5.29215ZM29.7193 40.0572C20.8461 42.7847 11.9659 39.5887 9.92088 32.9358C7.87589 26.2829 13.4277 18.6508 22.3009 15.9233C31.1741 13.1959 40.0543 16.3918 42.0993 23.0447C44.1443 29.6976 38.5925 37.3297 29.7193 40.0572Z" fill="white"/>
</svg>
